<svg xmlns="http://www.w3.org/2000/svg" viewBox="0 0 1300 750" width="1300" height="750"><g fill="#F95738"><rect x="4.5" y="4.5" width="41.0" height="41.0" rx="7.4" fill-opacity="0.062"/><rect x="54.5" y="4.5" width="41.0" height="41.0" rx="7.4" fill-opacity="0.067"/><rect x="104.5" y="4.5" width="41.0" height="41.0" rx="7.4" fill-opacity="0.074"/><rect x="154.5" y="4.5" width="41.0" height="41.0" rx="7.4" fill-opacity="0.081"/><rect x="204.5" y="4.5" width="41.0" height="41.0" rx="7.4" fill-opacity="0.091"/><rect x="254.5" y="4.5" width="41.0" height="41.0" rx="7.4" fill-opacity="0.101"/><rect x="304.5" y="4.5" width="41.0" height="41.0" rx="7.4" fill-opacity="0.112"/><rect x="354.5" y="4.5" width="41.0" height="41.0" rx="7.4" fill-opacity="0.124"/><rect x="404.5" y="4.5" width="41.0" height="41.0" rx="7.4" fill-opacity="0.135"/><rect x="454.5" y="4.5" width="41.0" height="41.0" rx="7.4" fill-opacity="0.145"/><rect x="504.5" y="4.5" width="41.0" height="41.0" rx="7.4" fill-opacity="0.154"/><rect x="554.5" y="4.5" width="41.0" height="41.0" rx="7.4" fill-opacity="0.160"/><rect x="604.5" y="4.5" width="41.0" height="41.0" rx="7.4" fill-opacity="0.163"/><rect x="654.5" y="4.5" width="41.0" height="41.0" rx="7.4" fill-opacity="0.163"/><rect x="704.5" y="4.5" width="41.0" height="41.0" rx="7.4" fill-opacity="0.160"/><rect x="754.5" y="4.5" width="41.0" height="41.0" rx="7.4" fill-opacity="0.154"/><rect x="804.5" y="4.5" width="41.0" height="41.0" rx="7.4" fill-opacity="0.145"/><rect x="854.5" y="4.5" width="41.0" height="41.0" rx="7.4" fill-opacity="0.135"/><rect x="904.5" y="4.5" width="41.0" height="41.0" rx="7.4" fill-opacity="0.124"/><rect x="954.5" y="4.5" width="41.0" height="41.0" rx="7.4" fill-opacity="0.112"/><rect x="1004.5" y="4.5" width="41.0" height="41.0" rx="7.4" fill-opacity="0.101"/><rect x="1054.5" y="4.5" width="41.0" height="41.0" rx="7.4" fill-opacity="0.091"/><rect x="1104.5" y="4.5" width="41.0" height="41.0" rx="7.4" fill-opacity="0.081"/><rect x="1154.5" y="4.5" width="41.0" height="41.0" rx="7.4" fill-opacity="0.074"/><rect x="1204.5" y="4.5" width="41.0" height="41.0" rx="7.4" fill-opacity="0.067"/><rect x="1254.5" y="4.5" width="41.0" height="41.0" rx="7.4" fill-opacity="0.062"/><rect x="4.5" y="54.5" width="41.0" height="41.0" rx="7.4" fill-opacity="0.071"/><rect x="54.5" y="54.5" width="41.0" height="41.0" rx="7.4" fill-opacity="0.080"/><rect x="104.5" y="54.5" width="41.0" height="41.0" rx="7.4" fill-opacity="0.091"/><rect x="154.5" y="54.5" width="41.0" height="41.0" rx="7.4" fill-opacity="0.105"/><rect x="204.5" y="54.5" width="41.0" height="41.0" rx="7.4" fill-opacity="0.121"/><rect x="254.5" y="54.5" width="41.0" height="41.0" rx="7.4" fill-opacity="0.139"/><rect x="304.5" y="54.5" width="41.0" height="41.0" rx="7.4" fill-opacity="0.158"/><rect x="354.5" y="54.5" width="41.0" height="41.0" rx="7.4" fill-opacity="0.178"/><rect x="404.5" y="54.5" width="41.0" height="41.0" rx="7.4" fill-opacity="0.198"/><rect x="454.5" y="54.5" width="41.0" height="41.0" rx="7.4" fill-opacity="0.216"/><rect x="504.5" y="54.5" width="41.0" height="41.0" rx="7.4" fill-opacity="0.231"/><rect x="554.5" y="54.5" width="41.0" height="41.0" rx="7.4" fill-opacity="0.241"/><rect x="604.5" y="54.5" width="41.0" height="41.0" rx="7.4" fill-opacity="0.247"/><rect x="654.5" y="54.5" width="41.0" height="41.0" rx="7.4" fill-opacity="0.247"/><rect x="704.5" y="54.5" width="41.0" height="41.0" rx="7.4" fill-opacity="0.241"/><rect x="754.5" y="54.5" width="41.0" height="41.0" rx="7.4" fill-opacity="0.231"/><rect x="804.5" y="54.5" width="41.0" height="41.0" rx="7.4" fill-opacity="0.216"/><rect x="854.5" y="54.5" width="41.0" height="41.0" rx="7.4" fill-opacity="0.198"/><rect x="904.5" y="54.5" width="41.0" height="41.0" rx="7.4" fill-opacity="0.178"/><rect x="954.5" y="54.5" width="41.0" height="41.0" rx="7.4" fill-opacity="0.158"/><rect x="1004.5" y="54.5" width="41.0" height="41.0" rx="7.4" fill-opacity="0.139"/><rect x="1054.5" y="54.5" width="41.0" height="41.0" rx="7.4" fill-opacity="0.121"/><rect x="1104.5" y="54.5" width="41.0" height="41.0" rx="7.4" fill-opacity="0.105"/><rect x="1154.5" y="54.5" width="41.0" height="41.0" rx="7.4" fill-opacity="0.091"/><rect x="1204.5" y="54.5" width="41.0" height="41.0" rx="7.4" fill-opacity="0.080"/><rect x="1254.5" y="54.5" width="41.0" height="41.0" rx="7.4" fill-opacity="0.071"/><rect x="4.5" y="104.5" width="41.0" height="41.0" rx="7.4" fill-opacity="0.084"/><rect x="54.5" y="104.5" width="41.0" height="41.0" rx="7.4" fill-opacity="0.098"/><rect x="104.5" y="104.5" width="41.0" height="41.0" rx="7.4" fill-opacity="0.116"/><rect x="154.5" y="104.5" width="41.0" height="41.0" rx="7.4" fill-opacity="0.138"/><rect x="204.5" y="104.5" width="41.0" height="41.0" rx="7.4" fill-opacity="0.163"/><rect x="254.5" y="104.5" width="41.0" height="41.0" rx="7.4" fill-opacity="0.192"/><rect x="304.5" y="104.5" width="41.0" height="41.0" rx="7.4" fill-opacity="0.223"/><rect x="354.5" y="104.5" width="41.0" height="41.0" rx="7.4" fill-opacity="0.256"/><rect x="404.5" y="104.5" width="41.0" height="41.0" rx="7.4" fill-opacity="0.287"/><rect x="454.5" y="104.5" width="41.0" height="41.0" rx="7.4" fill-opacity="0.316"/><rect x="504.5" y="104.5" width="41.0" height="41.0" rx="7.4" fill-opacity="0.339"/><rect x="554.5" y="104.5" width="41.0" height="41.0" rx="7.4" fill-opacity="0.356"/><rect x="604.5" y="104.5" width="41.0" height="41.0" rx="7.4" fill-opacity="0.365"/><rect x="654.5" y="104.5" width="41.0" height="41.0" rx="7.4" fill-opacity="0.365"/><rect x="704.5" y="104.5" width="41.0" height="41.0" rx="7.4" fill-opacity="0.356"/><rect x="754.5" y="104.5" width="41.0" height="41.0" rx="7.4" fill-opacity="0.339"/><rect x="804.5" y="104.5" width="41.0" height="41.0" rx="7.4" fill-opacity="0.316"/><rect x="854.5" y="104.5" width="41.0" height="41.0" rx="7.4" fill-opacity="0.287"/><rect x="904.5" y="104.5" width="41.0" height="41.0" rx="7.4" fill-opacity="0.256"/><rect x="954.5" y="104.5" width="41.0" height="41.0" rx="7.4" fill-opacity="0.223"/><rect x="1004.5" y="104.5" width="41.0" height="41.0" rx="7.4" fill-opacity="0.192"/><rect x="1054.5" y="104.5" width="41.0" height="41.0" rx="7.4" fill-opacity="0.163"/><rect x="1104.5" y="104.5" width="41.0" height="41.0" rx="7.4" fill-opacity="0.138"/><rect x="1154.5" y="104.5" width="41.0" height="41.0" rx="7.4" fill-opacity="0.116"/><rect x="1204.5" y="104.5" width="41.0" height="41.0" rx="7.4" fill-opacity="0.098"/><rect x="1254.5" y="104.5" width="41.0" height="41.0" rx="7.4" fill-opacity="0.084"/><rect x="4.5" y="154.5" width="41.0" height="41.0" rx="7.4" fill-opacity="0.100"/><rect x="54.5" y="154.5" width="41.0" height="41.0" rx="7.4" fill-opacity="0.121"/><rect x="104.5" y="154.5" width="41.0" height="41.0" rx="7.4" fill-opacity="0.147"/><rect x="154.5" y="154.5" width="41.0" height="41.0" rx="7.4" fill-opacity="0.179"/><rect x="204.5" y="154.5" width="41.0" height="41.0" rx="7.4" fill-opacity="0.216"/><rect x="254.5" y="154.5" width="41.0" height="41.0" rx="7.4" fill-opacity="0.259"/><rect x="304.5" y="154.5" width="41.0" height="41.0" rx="7.4" fill-opacity="0.305"/><rect x="354.5" y="154.5" width="41.0" height="41.0" rx="7.4" fill-opacity="0.352"/><rect x="404.5" y="154.5" width="41.0" height="41.0" rx="7.4" fill-opacity="0.398"/><rect x="454.5" y="154.5" width="41.0" height="41.0" rx="7.4" fill-opacity="0.440"/><rect x="504.5" y="154.5" width="41.0" height="41.0" rx="7.4" fill-opacity="0.475"/><rect x="554.5" y="154.5" width="41.0" height="41.0" rx="7.4" fill-opacity="0.500"/><rect x="604.5" y="154.5" width="41.0" height="41.0" rx="7.4" fill-opacity="0.513"/><rect x="654.5" y="154.5" width="41.0" height="41.0" rx="7.4" fill-opacity="0.513"/><rect x="704.5" y="154.5" width="41.0" height="41.0" rx="7.4" fill-opacity="0.500"/><rect x="754.5" y="154.5" width="41.0" height="41.0" rx="7.4" fill-opacity="0.475"/><rect x="804.5" y="154.5" width="41.0" height="41.0" rx="7.4" fill-opacity="0.440"/><rect x="854.5" y="154.5" width="41.0" height="41.0" rx="7.4" fill-opacity="0.398"/><rect x="904.5" y="154.5" width="41.0" height="41.0" rx="7.4" fill-opacity="0.352"/><rect x="954.5" y="154.5" width="41.0" height="41.0" rx="7.4" fill-opacity="0.305"/><rect x="1004.5" y="154.5" width="41.0" height="41.0" rx="7.4" fill-opacity="0.259"/><rect x="1054.5" y="154.5" width="41.0" height="41.0" rx="7.4" fill-opacity="0.216"/><rect x="1104.5" y="154.5" width="41.0" height="41.0" rx="7.4" fill-opacity="0.179"/><rect x="1154.5" y="154.5" width="41.0" height="41.0" rx="7.4" fill-opacity="0.147"/><rect x="1204.5" y="154.5" width="41.0" height="41.0" rx="7.4" fill-opacity="0.121"/><rect x="1254.5" y="154.5" width="41.0" height="41.0" rx="7.4" fill-opacity="0.100"/><rect x="4.5" y="204.5" width="41.0" height="41.0" rx="7.4" fill-opacity="0.118"/><rect x="54.5" y="204.5" width="41.0" height="41.0" rx="7.4" fill-opacity="0.145"/><rect x="104.5" y="204.5" width="41.0" height="41.0" rx="7.4" fill-opacity="0.181"/><rect x="154.5" y="204.5" width="41.0" height="41.0" rx="7.4" fill-opacity="0.223"/><rect x="204.5" y="204.5" width="41.0" height="41.0" rx="7.4" fill-opacity="0.274"/><rect x="254.5" y="204.5" width="41.0" height="41.0" rx="7.4" fill-opacity="0.331"/><rect x="304.5" y="204.5" width="41.0" height="41.0" rx="7.4" fill-opacity="0.393"/><rect x="354.5" y="204.5" width="41.0" height="41.0" rx="7.4" fill-opacity="0.457"/><rect x="404.5" y="204.5" width="41.0" height="41.0" rx="7.4" fill-opacity="0.520"/><rect x="454.5" y="204.5" width="41.0" height="41.0" rx="7.4" fill-opacity="0.576"/><rect x="504.5" y="204.5" width="41.0" height="41.0" rx="7.4" fill-opacity="0.623"/><rect x="554.5" y="204.5" width="41.0" height="41.0" rx="7.4" fill-opacity="0.657"/><rect x="604.5" y="204.5" width="41.0" height="41.0" rx="7.4" fill-opacity="0.674"/><rect x="654.5" y="204.5" width="41.0" height="41.0" rx="7.4" fill-opacity="0.674"/><rect x="704.5" y="204.5" width="41.0" height="41.0" rx="7.4" fill-opacity="0.657"/><rect x="754.5" y="204.5" width="41.0" height="41.0" rx="7.4" fill-opacity="0.623"/><rect x="804.5" y="204.5" width="41.0" height="41.0" rx="7.4" fill-opacity="0.576"/><rect x="854.5" y="204.5" width="41.0" height="41.0" rx="7.4" fill-opacity="0.520"/><rect x="904.5" y="204.5" width="41.0" height="41.0" rx="7.4" fill-opacity="0.457"/><rect x="954.5" y="204.5" width="41.0" height="41.0" rx="7.4" fill-opacity="0.393"/><rect x="1004.5" y="204.5" width="41.0" height="41.0" rx="7.4" fill-opacity="0.331"/><rect x="1054.5" y="204.5" width="41.0" height="41.0" rx="7.4" fill-opacity="0.274"/><rect x="1104.5" y="204.5" width="41.0" height="41.0" rx="7.4" fill-opacity="0.223"/><rect x="1154.5" y="204.5" width="41.0" height="41.0" rx="7.4" fill-opacity="0.181"/><rect x="1204.5" y="204.5" width="41.0" height="41.0" rx="7.4" fill-opacity="0.145"/><rect x="1254.5" y="204.5" width="41.0" height="41.0" rx="7.4" fill-opacity="0.118"/><rect x="4.5" y="254.5" width="41.0" height="41.0" rx="7.4" fill-opacity="0.134"/><rect x="54.5" y="254.5" width="41.0" height="41.0" rx="7.4" fill-opacity="0.168"/><rect x="104.5" y="254.5" width="41.0" height="41.0" rx="7.4" fill-opacity="0.212"/><rect x="154.5" y="254.5" width="41.0" height="41.0" rx="7.4" fill-opacity="0.265"/><rect x="204.5" y="254.5" width="41.0" height="41.0" rx="7.4" fill-opacity="0.327"/><rect x="254.5" y="254.5" width="41.0" height="41.0" rx="7.4" fill-opacity="0.398"/><rect x="304.5" y="254.5" width="41.0" height="41.0" rx="7.4" fill-opacity="0.475"/><rect x="354.5" y="254.5" width="41.0" height="41.0" rx="7.4" fill-opacity="0.554"/><rect x="404.5" y="254.5" width="41.0" height="41.0" rx="7.4" fill-opacity="0.631"/><rect x="454.5" y="254.5" width="41.0" height="41.0" rx="7.4" fill-opacity="0.701"/><rect x="504.5" y="254.5" width="41.0" height="41.0" rx="7.4" fill-opacity="0.759"/><rect x="554.5" y="254.5" width="41.0" height="41.0" rx="7.4" fill-opacity="0.801"/><rect x="604.5" y="254.5" width="41.0" height="41.0" rx="7.4" fill-opacity="0.823"/><rect x="654.5" y="254.5" width="41.0" height="41.0" rx="7.4" fill-opacity="0.823"/><rect x="704.5" y="254.5" width="41.0" height="41.0" rx="7.4" fill-opacity="0.801"/><rect x="754.5" y="254.5" width="41.0" height="41.0" rx="7.4" fill-opacity="0.759"/><rect x="804.5" y="254.5" width="41.0" height="41.0" rx="7.4" fill-opacity="0.701"/><rect x="854.5" y="254.5" width="41.0" height="41.0" rx="7.4" fill-opacity="0.631"/><rect x="904.5" y="254.5" width="41.0" height="41.0" rx="7.4" fill-opacity="0.554"/><rect x="954.5" y="254.5" width="41.0" height="41.0" rx="7.4" fill-opacity="0.475"/><rect x="1004.5" y="254.5" width="41.0" height="41.0" rx="7.4" fill-opacity="0.398"/><rect x="1054.5" y="254.5" width="41.0" height="41.0" rx="7.4" fill-opacity="0.327"/><rect x="1104.5" y="254.5" width="41.0" height="41.0" rx="7.4" fill-opacity="0.265"/><rect x="1154.5" y="254.5" width="41.0" height="41.0" rx="7.4" fill-opacity="0.212"/><rect x="1204.5" y="254.5" width="41.0" height="41.0" rx="7.4" fill-opacity="0.168"/><rect x="1254.5" y="254.5" width="41.0" height="41.0" rx="7.4" fill-opacity="0.134"/><rect x="4.5" y="304.5" width="41.0" height="41.0" rx="7.4" fill-opacity="0.146"/><rect x="54.5" y="304.5" width="41.0" height="41.0" rx="7.4" fill-opacity="0.184"/><rect x="104.5" y="304.5" width="41.0" height="41.0" rx="7.4" fill-opacity="0.234"/><rect x="154.5" y="304.5" width="41.0" height="41.0" rx="7.4" fill-opacity="0.294"/><rect x="204.5" y="304.5" width="41.0" height="41.0" rx="7.4" fill-opacity="0.365"/><rect x="254.5" y="304.5" width="41.0" height="41.0" rx="7.4" fill-opacity="0.446"/><rect x="304.5" y="304.5" width="41.0" height="41.0" rx="7.4" fill-opacity="0.533"/><rect x="354.5" y="304.5" width="41.0" height="41.0" rx="7.4" fill-opacity="0.623"/><rect x="404.5" y="304.5" width="41.0" height="41.0" rx="7.4" fill-opacity="0.711"/><rect x="454.5" y="304.5" width="41.0" height="41.0" rx="7.4" fill-opacity="0.791"/><rect x="504.5" y="304.5" width="41.0" height="41.0" rx="7.4" fill-opacity="0.857"/><rect x="554.5" y="304.5" width="41.0" height="41.0" rx="7.4" fill-opacity="0.904"/><rect x="604.5" y="304.5" width="41.0" height="41.0" rx="7.4" fill-opacity="0.928"/><rect x="654.5" y="304.5" width="41.0" height="41.0" rx="7.4" fill-opacity="0.928"/><rect x="704.5" y="304.5" width="41.0" height="41.0" rx="7.4" fill-opacity="0.904"/><rect x="754.5" y="304.5" width="41.0" height="41.0" rx="7.4" fill-opacity="0.857"/><rect x="804.5" y="304.5" width="41.0" height="41.0" rx="7.4" fill-opacity="0.791"/><rect x="854.5" y="304.5" width="41.0" height="41.0" rx="7.4" fill-opacity="0.711"/><rect x="904.5" y="304.5" width="41.0" height="41.0" rx="7.4" fill-opacity="0.623"/><rect x="954.5" y="304.5" width="41.0" height="41.0" rx="7.4" fill-opacity="0.533"/><rect x="1004.5" y="304.5" width="41.0" height="41.0" rx="7.4" fill-opacity="0.446"/><rect x="1054.5" y="304.5" width="41.0" height="41.0" rx="7.4" fill-opacity="0.365"/><rect x="1104.5" y="304.5" width="41.0" height="41.0" rx="7.4" fill-opacity="0.294"/><rect x="1154.5" y="304.5" width="41.0" height="41.0" rx="7.4" fill-opacity="0.234"/><rect x="1204.5" y="304.5" width="41.0" height="41.0" rx="7.4" fill-opacity="0.184"/><rect x="1254.5" y="304.5" width="41.0" height="41.0" rx="7.4" fill-opacity="0.146"/><rect x="4.5" y="354.5" width="41.0" height="41.0" rx="7.4" fill-opacity="0.150"/><rect x="54.5" y="354.5" width="41.0" height="41.0" rx="7.4" fill-opacity="0.190"/><rect x="104.5" y="354.5" width="41.0" height="41.0" rx="7.4" fill-opacity="0.242"/><rect x="154.5" y="354.5" width="41.0" height="41.0" rx="7.4" fill-opacity="0.305"/><rect x="204.5" y="354.5" width="41.0" height="41.0" rx="7.4" fill-opacity="0.379"/><rect x="254.5" y="354.5" width="41.0" height="41.0" rx="7.4" fill-opacity="0.463"/><rect x="304.5" y="354.5" width="41.0" height="41.0" rx="7.4" fill-opacity="0.554"/><rect x="354.5" y="354.5" width="41.0" height="41.0" rx="7.4" fill-opacity="0.648"/><rect x="404.5" y="354.5" width="41.0" height="41.0" rx="7.4" fill-opacity="0.740"/><rect x="454.5" y="354.5" width="41.0" height="41.0" rx="7.4" fill-opacity="0.823"/><rect x="504.5" y="354.5" width="41.0" height="41.0" rx="7.4" fill-opacity="0.892"/><rect x="554.5" y="354.5" width="41.0" height="41.0" rx="7.4" fill-opacity="0.941"/><rect x="604.5" y="354.5" width="41.0" height="41.0" rx="7.4" fill-opacity="0.967"/><rect x="654.5" y="354.5" width="41.0" height="41.0" rx="7.4" fill-opacity="0.967"/><rect x="704.5" y="354.5" width="41.0" height="41.0" rx="7.4" fill-opacity="0.941"/><rect x="754.5" y="354.5" width="41.0" height="41.0" rx="7.4" fill-opacity="0.892"/><rect x="804.5" y="354.5" width="41.0" height="41.0" rx="7.4" fill-opacity="0.823"/><rect x="854.5" y="354.5" width="41.0" height="41.0" rx="7.4" fill-opacity="0.740"/><rect x="904.5" y="354.5" width="41.0" height="41.0" rx="7.4" fill-opacity="0.648"/><rect x="954.5" y="354.5" width="41.0" height="41.0" rx="7.4" fill-opacity="0.554"/><rect x="1004.5" y="354.5" width="41.0" height="41.0" rx="7.4" fill-opacity="0.463"/><rect x="1054.5" y="354.5" width="41.0" height="41.0" rx="7.4" fill-opacity="0.379"/><rect x="1104.5" y="354.5" width="41.0" height="41.0" rx="7.4" fill-opacity="0.305"/><rect x="1154.5" y="354.5" width="41.0" height="41.0" rx="7.4" fill-opacity="0.242"/><rect x="1204.5" y="354.5" width="41.0" height="41.0" rx="7.4" fill-opacity="0.190"/><rect x="1254.5" y="354.5" width="41.0" height="41.0" rx="7.4" fill-opacity="0.150"/><rect x="4.5" y="404.5" width="41.0" height="41.0" rx="7.4" fill-opacity="0.146"/><rect x="54.5" y="404.5" width="41.0" height="41.0" rx="7.4" fill-opacity="0.184"/><rect x="104.5" y="404.5" width="41.0" height="41.0" rx="7.4" fill-opacity="0.234"/><rect x="154.5" y="404.5" width="41.0" height="41.0" rx="7.4" fill-opacity="0.294"/><rect x="204.5" y="404.5" width="41.0" height="41.0" rx="7.4" fill-opacity="0.365"/><rect x="254.5" y="404.5" width="41.0" height="41.0" rx="7.4" fill-opacity="0.446"/><rect x="304.5" y="404.5" width="41.0" height="41.0" rx="7.4" fill-opacity="0.533"/><rect x="354.5" y="404.5" width="41.0" height="41.0" rx="7.4" fill-opacity="0.623"/><rect x="404.5" y="404.5" width="41.0" height="41.0" rx="7.4" fill-opacity="0.711"/><rect x="454.5" y="404.5" width="41.0" height="41.0" rx="7.4" fill-opacity="0.791"/><rect x="504.5" y="404.5" width="41.0" height="41.0" rx="7.4" fill-opacity="0.857"/><rect x="554.5" y="404.5" width="41.0" height="41.0" rx="7.4" fill-opacity="0.904"/><rect x="604.5" y="404.5" width="41.0" height="41.0" rx="7.4" fill-opacity="0.928"/><rect x="654.5" y="404.5" width="41.0" height="41.0" rx="7.4" fill-opacity="0.928"/><rect x="704.5" y="404.5" width="41.0" height="41.0" rx="7.4" fill-opacity="0.904"/><rect x="754.5" y="404.5" width="41.0" height="41.0" rx="7.4" fill-opacity="0.857"/><rect x="804.5" y="404.5" width="41.0" height="41.0" rx="7.4" fill-opacity="0.791"/><rect x="854.5" y="404.5" width="41.0" height="41.0" rx="7.4" fill-opacity="0.711"/><rect x="904.5" y="404.5" width="41.0" height="41.0" rx="7.4" fill-opacity="0.623"/><rect x="954.5" y="404.5" width="41.0" height="41.0" rx="7.4" fill-opacity="0.533"/><rect x="1004.5" y="404.5" width="41.0" height="41.0" rx="7.4" fill-opacity="0.446"/><rect x="1054.5" y="404.5" width="41.0" height="41.0" rx="7.4" fill-opacity="0.365"/><rect x="1104.5" y="404.5" width="41.0" height="41.0" rx="7.4" fill-opacity="0.294"/><rect x="1154.5" y="404.5" width="41.0" height="41.0" rx="7.4" fill-opacity="0.234"/><rect x="1204.5" y="404.5" width="41.0" height="41.0" rx="7.4" fill-opacity="0.184"/><rect x="1254.5" y="404.5" width="41.0" height="41.0" rx="7.4" fill-opacity="0.146"/><rect x="4.5" y="454.5" width="41.0" height="41.0" rx="7.4" fill-opacity="0.134"/><rect x="54.5" y="454.5" width="41.0" height="41.0" rx="7.4" fill-opacity="0.168"/><rect x="104.5" y="454.5" width="41.0" height="41.0" rx="7.4" fill-opacity="0.212"/><rect x="154.5" y="454.5" width="41.0" height="41.0" rx="7.4" fill-opacity="0.265"/><rect x="204.5" y="454.5" width="41.0" height="41.0" rx="7.4" fill-opacity="0.327"/><rect x="254.5" y="454.5" width="41.0" height="41.0" rx="7.4" fill-opacity="0.398"/><rect x="304.5" y="454.5" width="41.0" height="41.0" rx="7.4" fill-opacity="0.475"/><rect x="354.5" y="454.5" width="41.0" height="41.0" rx="7.4" fill-opacity="0.554"/><rect x="404.5" y="454.5" width="41.0" height="41.0" rx="7.4" fill-opacity="0.631"/><rect x="454.5" y="454.5" width="41.0" height="41.0" rx="7.4" fill-opacity="0.701"/><rect x="504.5" y="454.5" width="41.0" height="41.0" rx="7.4" fill-opacity="0.759"/><rect x="554.5" y="454.5" width="41.0" height="41.0" rx="7.4" fill-opacity="0.801"/><rect x="604.5" y="454.5" width="41.0" height="41.0" rx="7.4" fill-opacity="0.823"/><rect x="654.5" y="454.5" width="41.0" height="41.0" rx="7.4" fill-opacity="0.823"/><rect x="704.5" y="454.5" width="41.0" height="41.0" rx="7.4" fill-opacity="0.801"/><rect x="754.5" y="454.5" width="41.0" height="41.0" rx="7.4" fill-opacity="0.759"/><rect x="804.5" y="454.5" width="41.0" height="41.0" rx="7.4" fill-opacity="0.701"/><rect x="854.5" y="454.5" width="41.0" height="41.0" rx="7.4" fill-opacity="0.631"/><rect x="904.5" y="454.5" width="41.0" height="41.0" rx="7.4" fill-opacity="0.554"/><rect x="954.5" y="454.5" width="41.0" height="41.0" rx="7.4" fill-opacity="0.475"/><rect x="1004.5" y="454.5" width="41.0" height="41.0" rx="7.4" fill-opacity="0.398"/><rect x="1054.5" y="454.5" width="41.0" height="41.0" rx="7.4" fill-opacity="0.327"/><rect x="1104.5" y="454.5" width="41.0" height="41.0" rx="7.4" fill-opacity="0.265"/><rect x="1154.5" y="454.5" width="41.0" height="41.0" rx="7.4" fill-opacity="0.212"/><rect x="1204.5" y="454.5" width="41.0" height="41.0" rx="7.4" fill-opacity="0.168"/><rect x="1254.5" y="454.5" width="41.0" height="41.0" rx="7.4" fill-opacity="0.134"/><rect x="4.5" y="504.5" width="41.0" height="41.0" rx="7.4" fill-opacity="0.118"/><rect x="54.5" y="504.5" width="41.0" height="41.0" rx="7.4" fill-opacity="0.145"/><rect x="104.5" y="504.5" width="41.0" height="41.0" rx="7.4" fill-opacity="0.181"/><rect x="154.5" y="504.5" width="41.0" height="41.0" rx="7.4" fill-opacity="0.223"/><rect x="204.5" y="504.5" width="41.0" height="41.0" rx="7.4" fill-opacity="0.274"/><rect x="254.5" y="504.5" width="41.0" height="41.0" rx="7.4" fill-opacity="0.331"/><rect x="304.5" y="504.5" width="41.0" height="41.0" rx="7.4" fill-opacity="0.393"/><rect x="354.5" y="504.5" width="41.0" height="41.0" rx="7.4" fill-opacity="0.457"/><rect x="404.5" y="504.5" width="41.0" height="41.0" rx="7.4" fill-opacity="0.520"/><rect x="454.5" y="504.5" width="41.0" height="41.0" rx="7.4" fill-opacity="0.576"/><rect x="504.5" y="504.5" width="41.0" height="41.0" rx="7.4" fill-opacity="0.623"/><rect x="554.5" y="504.5" width="41.0" height="41.0" rx="7.4" fill-opacity="0.657"/><rect x="604.5" y="504.5" width="41.0" height="41.0" rx="7.4" fill-opacity="0.674"/><rect x="654.5" y="504.5" width="41.0" height="41.0" rx="7.4" fill-opacity="0.674"/><rect x="704.5" y="504.5" width="41.0" height="41.0" rx="7.4" fill-opacity="0.657"/><rect x="754.5" y="504.5" width="41.0" height="41.0" rx="7.4" fill-opacity="0.623"/><rect x="804.5" y="504.5" width="41.0" height="41.0" rx="7.4" fill-opacity="0.576"/><rect x="854.5" y="504.5" width="41.0" height="41.0" rx="7.4" fill-opacity="0.520"/><rect x="904.5" y="504.5" width="41.0" height="41.0" rx="7.4" fill-opacity="0.457"/><rect x="954.5" y="504.5" width="41.0" height="41.0" rx="7.4" fill-opacity="0.393"/><rect x="1004.5" y="504.5" width="41.0" height="41.0" rx="7.4" fill-opacity="0.331"/><rect x="1054.5" y="504.5" width="41.0" height="41.0" rx="7.4" fill-opacity="0.274"/><rect x="1104.5" y="504.5" width="41.0" height="41.0" rx="7.4" fill-opacity="0.223"/><rect x="1154.5" y="504.5" width="41.0" height="41.0" rx="7.4" fill-opacity="0.181"/><rect x="1204.5" y="504.5" width="41.0" height="41.0" rx="7.4" fill-opacity="0.145"/><rect x="1254.5" y="504.5" width="41.0" height="41.0" rx="7.4" fill-opacity="0.118"/><rect x="4.5" y="554.5" width="41.0" height="41.0" rx="7.4" fill-opacity="0.100"/><rect x="54.5" y="554.5" width="41.0" height="41.0" rx="7.4" fill-opacity="0.121"/><rect x="104.5" y="554.5" width="41.0" height="41.0" rx="7.4" fill-opacity="0.147"/><rect x="154.5" y="554.5" width="41.0" height="41.0" rx="7.4" fill-opacity="0.179"/><rect x="204.5" y="554.5" width="41.0" height="41.0" rx="7.4" fill-opacity="0.216"/><rect x="254.5" y="554.5" width="41.0" height="41.0" rx="7.4" fill-opacity="0.259"/><rect x="304.5" y="554.5" width="41.0" height="41.0" rx="7.4" fill-opacity="0.305"/><rect x="354.5" y="554.5" width="41.0" height="41.0" rx="7.4" fill-opacity="0.352"/><rect x="404.5" y="554.5" width="41.0" height="41.0" rx="7.4" fill-opacity="0.398"/><rect x="454.5" y="554.5" width="41.0" height="41.0" rx="7.4" fill-opacity="0.440"/><rect x="504.5" y="554.5" width="41.0" height="41.0" rx="7.4" fill-opacity="0.475"/><rect x="554.5" y="554.5" width="41.0" height="41.0" rx="7.4" fill-opacity="0.500"/><rect x="604.5" y="554.5" width="41.0" height="41.0" rx="7.4" fill-opacity="0.513"/><rect x="654.5" y="554.5" width="41.0" height="41.0" rx="7.4" fill-opacity="0.513"/><rect x="704.5" y="554.5" width="41.0" height="41.0" rx="7.4" fill-opacity="0.500"/><rect x="754.5" y="554.5" width="41.0" height="41.0" rx="7.4" fill-opacity="0.475"/><rect x="804.5" y="554.5" width="41.0" height="41.0" rx="7.4" fill-opacity="0.440"/><rect x="854.5" y="554.5" width="41.0" height="41.0" rx="7.4" fill-opacity="0.398"/><rect x="904.5" y="554.5" width="41.0" height="41.0" rx="7.4" fill-opacity="0.352"/><rect x="954.5" y="554.5" width="41.0" height="41.0" rx="7.4" fill-opacity="0.305"/><rect x="1004.5" y="554.5" width="41.0" height="41.0" rx="7.4" fill-opacity="0.259"/><rect x="1054.5" y="554.5" width="41.0" height="41.0" rx="7.4" fill-opacity="0.216"/><rect x="1104.5" y="554.5" width="41.0" height="41.0" rx="7.4" fill-opacity="0.179"/><rect x="1154.5" y="554.5" width="41.0" height="41.0" rx="7.4" fill-opacity="0.147"/><rect x="1204.5" y="554.5" width="41.0" height="41.0" rx="7.4" fill-opacity="0.121"/><rect x="1254.5" y="554.5" width="41.0" height="41.0" rx="7.4" fill-opacity="0.100"/><rect x="4.5" y="604.5" width="41.0" height="41.0" rx="7.4" fill-opacity="0.084"/><rect x="54.5" y="604.5" width="41.0" height="41.0" rx="7.4" fill-opacity="0.098"/><rect x="104.5" y="604.5" width="41.0" height="41.0" rx="7.4" fill-opacity="0.116"/><rect x="154.5" y="604.5" width="41.0" height="41.0" rx="7.4" fill-opacity="0.138"/><rect x="204.5" y="604.5" width="41.0" height="41.0" rx="7.4" fill-opacity="0.163"/><rect x="254.5" y="604.5" width="41.0" height="41.0" rx="7.4" fill-opacity="0.192"/><rect x="304.5" y="604.5" width="41.0" height="41.0" rx="7.4" fill-opacity="0.223"/><rect x="354.5" y="604.5" width="41.0" height="41.0" rx="7.4" fill-opacity="0.256"/><rect x="404.5" y="604.5" width="41.0" height="41.0" rx="7.4" fill-opacity="0.287"/><rect x="454.5" y="604.5" width="41.0" height="41.0" rx="7.4" fill-opacity="0.316"/><rect x="504.5" y="604.5" width="41.0" height="41.0" rx="7.4" fill-opacity="0.339"/><rect x="554.5" y="604.5" width="41.0" height="41.0" rx="7.4" fill-opacity="0.356"/><rect x="604.5" y="604.5" width="41.0" height="41.0" rx="7.4" fill-opacity="0.365"/><rect x="654.5" y="604.5" width="41.0" height="41.0" rx="7.4" fill-opacity="0.365"/><rect x="704.5" y="604.5" width="41.0" height="41.0" rx="7.4" fill-opacity="0.356"/><rect x="754.5" y="604.5" width="41.0" height="41.0" rx="7.4" fill-opacity="0.339"/><rect x="804.5" y="604.5" width="41.0" height="41.0" rx="7.4" fill-opacity="0.316"/><rect x="854.5" y="604.5" width="41.0" height="41.0" rx="7.4" fill-opacity="0.287"/><rect x="904.5" y="604.5" width="41.0" height="41.0" rx="7.4" fill-opacity="0.256"/><rect x="954.5" y="604.5" width="41.0" height="41.0" rx="7.4" fill-opacity="0.223"/><rect x="1004.5" y="604.5" width="41.0" height="41.0" rx="7.4" fill-opacity="0.192"/><rect x="1054.5" y="604.5" width="41.0" height="41.0" rx="7.4" fill-opacity="0.163"/><rect x="1104.5" y="604.5" width="41.0" height="41.0" rx="7.4" fill-opacity="0.138"/><rect x="1154.5" y="604.5" width="41.0" height="41.0" rx="7.4" fill-opacity="0.116"/><rect x="1204.5" y="604.5" width="41.0" height="41.0" rx="7.4" fill-opacity="0.098"/><rect x="1254.5" y="604.5" width="41.0" height="41.0" rx="7.4" fill-opacity="0.084"/><rect x="4.5" y="654.5" width="41.0" height="41.0" rx="7.4" fill-opacity="0.071"/><rect x="54.5" y="654.5" width="41.0" height="41.0" rx="7.4" fill-opacity="0.080"/><rect x="104.5" y="654.5" width="41.0" height="41.0" rx="7.4" fill-opacity="0.091"/><rect x="154.5" y="654.5" width="41.0" height="41.0" rx="7.4" fill-opacity="0.105"/><rect x="204.5" y="654.5" width="41.0" height="41.0" rx="7.4" fill-opacity="0.121"/><rect x="254.5" y="654.5" width="41.0" height="41.0" rx="7.4" fill-opacity="0.139"/><rect x="304.5" y="654.5" width="41.0" height="41.0" rx="7.4" fill-opacity="0.158"/><rect x="354.5" y="654.5" width="41.0" height="41.0" rx="7.4" fill-opacity="0.178"/><rect x="404.5" y="654.5" width="41.0" height="41.0" rx="7.4" fill-opacity="0.198"/><rect x="454.5" y="654.5" width="41.0" height="41.0" rx="7.4" fill-opacity="0.216"/><rect x="504.5" y="654.5" width="41.0" height="41.0" rx="7.4" fill-opacity="0.231"/><rect x="554.5" y="654.5" width="41.0" height="41.0" rx="7.4" fill-opacity="0.241"/><rect x="604.5" y="654.5" width="41.0" height="41.0" rx="7.4" fill-opacity="0.247"/><rect x="654.5" y="654.5" width="41.0" height="41.0" rx="7.4" fill-opacity="0.247"/><rect x="704.5" y="654.5" width="41.0" height="41.0" rx="7.4" fill-opacity="0.241"/><rect x="754.5" y="654.5" width="41.0" height="41.0" rx="7.4" fill-opacity="0.231"/><rect x="804.5" y="654.5" width="41.0" height="41.0" rx="7.4" fill-opacity="0.216"/><rect x="854.5" y="654.5" width="41.0" height="41.0" rx="7.4" fill-opacity="0.198"/><rect x="904.5" y="654.5" width="41.0" height="41.0" rx="7.4" fill-opacity="0.178"/><rect x="954.5" y="654.5" width="41.0" height="41.0" rx="7.4" fill-opacity="0.158"/><rect x="1004.5" y="654.5" width="41.0" height="41.0" rx="7.4" fill-opacity="0.139"/><rect x="1054.5" y="654.5" width="41.0" height="41.0" rx="7.4" fill-opacity="0.121"/><rect x="1104.5" y="654.5" width="41.0" height="41.0" rx="7.4" fill-opacity="0.105"/><rect x="1154.5" y="654.5" width="41.0" height="41.0" rx="7.4" fill-opacity="0.091"/><rect x="1204.5" y="654.5" width="41.0" height="41.0" rx="7.4" fill-opacity="0.080"/><rect x="1254.5" y="654.5" width="41.0" height="41.0" rx="7.4" fill-opacity="0.071"/><rect x="4.5" y="704.5" width="41.0" height="41.0" rx="7.4" fill-opacity="0.062"/><rect x="54.5" y="704.5" width="41.0" height="41.0" rx="7.4" fill-opacity="0.067"/><rect x="104.5" y="704.5" width="41.0" height="41.0" rx="7.4" fill-opacity="0.074"/><rect x="154.5" y="704.5" width="41.0" height="41.0" rx="7.4" fill-opacity="0.081"/><rect x="204.5" y="704.5" width="41.0" height="41.0" rx="7.4" fill-opacity="0.091"/><rect x="254.5" y="704.5" width="41.0" height="41.0" rx="7.4" fill-opacity="0.101"/><rect x="304.5" y="704.5" width="41.0" height="41.0" rx="7.4" fill-opacity="0.112"/><rect x="354.5" y="704.5" width="41.0" height="41.0" rx="7.4" fill-opacity="0.124"/><rect x="404.5" y="704.5" width="41.0" height="41.0" rx="7.4" fill-opacity="0.135"/><rect x="454.5" y="704.5" width="41.0" height="41.0" rx="7.4" fill-opacity="0.145"/><rect x="504.5" y="704.5" width="41.0" height="41.0" rx="7.4" fill-opacity="0.154"/><rect x="554.5" y="704.5" width="41.0" height="41.0" rx="7.4" fill-opacity="0.160"/><rect x="604.5" y="704.5" width="41.0" height="41.0" rx="7.4" fill-opacity="0.163"/><rect x="654.5" y="704.5" width="41.0" height="41.0" rx="7.4" fill-opacity="0.163"/><rect x="704.5" y="704.5" width="41.0" height="41.0" rx="7.4" fill-opacity="0.160"/><rect x="754.5" y="704.5" width="41.0" height="41.0" rx="7.4" fill-opacity="0.154"/><rect x="804.5" y="704.5" width="41.0" height="41.0" rx="7.4" fill-opacity="0.145"/><rect x="854.5" y="704.5" width="41.0" height="41.0" rx="7.4" fill-opacity="0.135"/><rect x="904.5" y="704.5" width="41.0" height="41.0" rx="7.4" fill-opacity="0.124"/><rect x="954.5" y="704.5" width="41.0" height="41.0" rx="7.4" fill-opacity="0.112"/><rect x="1004.5" y="704.5" width="41.0" height="41.0" rx="7.4" fill-opacity="0.101"/><rect x="1054.5" y="704.5" width="41.0" height="41.0" rx="7.4" fill-opacity="0.091"/><rect x="1104.5" y="704.5" width="41.0" height="41.0" rx="7.4" fill-opacity="0.081"/><rect x="1154.5" y="704.5" width="41.0" height="41.0" rx="7.4" fill-opacity="0.074"/><rect x="1204.5" y="704.5" width="41.0" height="41.0" rx="7.4" fill-opacity="0.067"/><rect x="1254.5" y="704.5" width="41.0" height="41.0" rx="7.4" fill-opacity="0.062"/></g></svg>